<?xml version="1.0" encoding="UTF-8"?>
<svg id="Layer_1" data-name="Layer 1" xmlns="http://www.w3.org/2000/svg" viewBox="0 0 342.82 352.97">
  <defs>
    <style>
      .cls-1 {
        fill: #354ca1;
      }
    </style>
  </defs>
  <path class="cls-1" d="M6.62,61.85V10.15h14.62c13.97,0,20.09,4.25,20.09,13.11,0,5.33-2.59,9.07-7.7,11.09v.14c7.56,2.59,9.72,7.42,9.72,13.03,0,11.67-9.58,14.33-20.23,14.33H6.62Zm14.98-29.52c5.04,0,12.89-.72,12.89-8.5,0-7.27-7.71-7.78-13.75-7.78h-7.42v16.27h8.28Zm1.22,23.69c9.58,0,13.68-2.74,13.68-8.86,0-6.48-4.61-9.43-12.82-9.43H13.32v18.29h9.5Z"/>
  <path class="cls-1" d="M84.17,61.85l-10.95-22.25h-11.88v22.25h-6.91V10.15h15.99c13.39,0,19.3,4.97,19.3,14.33,0,7.06-3.82,11.3-9.94,13.32l12.17,24.05h-7.78Zm-13.54-28.23c4.46,0,12.17-.72,12.17-8.78s-6.26-8.64-11.81-8.64h-9.65v17.43h9.29Z"/>
  <path class="cls-1" d="M101.3,61.85V10.15h6.91V61.85h-6.91Z"/>
  <path class="cls-1" d="M121.46,61.85V10.15h13.9c17.28,0,24.91,8.79,24.91,25.27,0,17.5-9,26.43-26.28,26.43h-12.53Zm13.18-6.19c12.89,0,18.87-6.55,18.87-20.09s-5.69-19.23-17.5-19.23h-7.63V55.66h6.26Z"/>
  <path class="cls-1" d="M203.19,61.85l-9-39.24h-.14l-9.22,39.24h-6.91l-13.61-51.7h7.27l9.72,40.32h.14l9.36-40.32h6.84l8.93,40.18h.14l10.15-40.18h6.91l-13.75,51.7h-6.84Z"/>
  <path class="cls-1" d="M230.9,61.85V10.15h31.18v6.05h-24.27v15.91h17.43v5.9h-17.43v17.79h25.42v6.05h-32.33Z"/>
  <path class="cls-1" d="M271.8,61.85V10.15h6.91V55.8h22.54v6.05h-29.45Z"/>
  <path class="cls-1" d="M308.95,61.85V10.15h6.91V55.8h22.54v6.05h-29.45Z"/>
  <path class="cls-1" d="M6.62,148.25v-51.7h15.91c12.82,0,19.23,4.82,19.23,14.98s-6.62,15.27-19.8,15.27H13.54v21.46H6.62Zm15.84-27.36c5.47,0,12.46-.94,12.46-9.36,0-6.12-4.03-8.93-11.81-8.93H13.54v18.29h8.93Z"/>
  <path class="cls-1" d="M80.72,148.25l-10.95-22.25h-11.88v22.25h-6.91v-51.7h15.99c13.39,0,19.3,4.97,19.3,14.33,0,7.06-3.82,11.3-9.94,13.32l12.17,24.05h-7.78Zm-13.54-28.23c4.46,0,12.17-.72,12.17-8.78s-6.26-8.64-11.81-8.64h-9.65v17.43h9.29Z"/>
  <path class="cls-1" d="M97.85,148.25v-51.7h31.18v6.05h-24.27v15.91h17.43v5.9h-17.43v17.79h25.42v6.05h-32.33Z"/>
  <path class="cls-1" d="M163.15,109.44c-2.23-5.33-5.26-7.85-10.94-7.85s-9.65,2.81-9.65,7.78c0,11.74,27.79,6.12,27.79,24.7,0,9.94-7.2,15.05-17.5,15.05s-15.27-4.03-18.43-13.39l6.41-2.16c2.09,6.48,5.4,9.58,12.31,9.58,6.26,0,10.58-3.02,10.58-8.64,0-12.96-27.58-6.7-27.58-24.99,0-8.71,6.77-13.83,16.06-13.83s14.47,4.1,16.78,11.59l-5.83,2.16Z"/>
  <path class="cls-1" d="M204.55,109.44c-2.23-5.33-5.26-7.85-10.94-7.85s-9.65,2.81-9.65,7.78c0,11.74,27.79,6.12,27.79,24.7,0,9.94-7.2,15.05-17.5,15.05s-15.27-4.03-18.43-13.39l6.41-2.16c2.09,6.48,5.4,9.58,12.31,9.58,6.26,0,10.58-3.02,10.58-8.64,0-12.96-27.58-6.7-27.58-24.99,0-8.71,6.77-13.83,16.06-13.83s14.47,4.1,16.78,11.59l-5.83,2.16Z"/>
</svg>